<svg width="232" height="33" viewBox="0 0 232 33" fill="none" xmlns="http://www.w3.org/2000/svg">
<g filter="url(#filter0_i_214_29976)">
<rect width="232" height="33" rx="16.5" fill="black" fill-opacity="0.27"/>
<rect x="0.5" y="0.5" width="231" height="32" rx="16" stroke="black" stroke-opacity="0.7"/>
<g filter="url(#filter1_d_214_29976)">
<path d="M15.3279 22L17.1429 11.695H19.0779L18.0879 17.305L25.6179 11.695H28.2879L22.6779 15.925L26.6079 22H24.3129L21.1629 17.005L17.6979 19.435L17.2629 22H15.3279ZM28.7786 22L30.5936 11.695H32.4536L37.4486 17.875C37.5286 17.965 37.6286 18.095 37.7486 18.265C37.8786 18.435 38.0136 18.615 38.1536 18.805C38.3036 18.995 38.4386 19.165 38.5586 19.315H38.6786C38.6986 19.105 38.7286 18.85 38.7686 18.55C38.8086 18.24 38.8486 17.98 38.8886 17.77L39.9686 11.695H41.8286L40.0136 22H38.2136L33.2036 15.76C33.0036 15.52 32.7936 15.255 32.5736 14.965C32.3636 14.675 32.1936 14.445 32.0636 14.275H31.9586C31.9486 14.435 31.9186 14.68 31.8686 15.01C31.8286 15.33 31.7736 15.67 31.7036 16.03L30.6386 22H28.7786ZM49.5398 22.18C48.2898 22.18 47.2198 22.015 46.3298 21.685C45.4498 21.355 44.7748 20.87 44.3048 20.23C43.8348 19.58 43.5998 18.79 43.5998 17.86C43.5998 17.39 43.6448 16.945 43.7348 16.525C43.8248 16.105 43.9598 15.715 44.1398 15.355C44.4798 14.515 44.9748 13.815 45.6248 13.255C46.2748 12.685 47.0548 12.255 47.9648 11.965C48.8848 11.665 49.8948 11.515 50.9948 11.515C52.2448 11.515 53.3098 11.685 54.1898 12.025C55.0798 12.355 55.7598 12.845 56.2298 13.495C56.7098 14.135 56.9498 14.92 56.9498 15.85C56.9498 16.26 56.9148 16.65 56.8448 17.02C56.7748 17.39 56.6698 17.74 56.5298 18.07C56.2198 18.96 55.7298 19.71 55.0598 20.32C54.3998 20.93 53.5998 21.395 52.6598 21.715C51.7298 22.025 50.6898 22.18 49.5398 22.18ZM49.6148 20.545C50.2548 20.545 50.8648 20.475 51.4448 20.335C52.0248 20.195 52.5498 19.98 53.0198 19.69C53.4998 19.4 53.8948 19.035 54.2048 18.595C54.5148 18.145 54.7198 17.615 54.8198 17.005C54.8398 16.865 54.8548 16.745 54.8648 16.645C54.8848 16.535 54.8998 16.445 54.9098 16.375C54.9198 16.295 54.9248 16.225 54.9248 16.165C54.9348 16.105 54.9398 16.05 54.9398 16C54.9398 15.34 54.7698 14.8 54.4298 14.38C54.0898 13.96 53.6148 13.65 53.0048 13.45C52.4048 13.25 51.7098 13.15 50.9198 13.15C50.2798 13.15 49.6698 13.22 49.0898 13.36C48.5098 13.5 47.9848 13.715 47.5148 14.005C47.0448 14.285 46.6548 14.65 46.3448 15.1C46.0448 15.54 45.8398 16.06 45.7298 16.66C45.6998 16.81 45.6748 16.94 45.6548 17.05C45.6448 17.15 45.6348 17.24 45.6248 17.32C45.6248 17.39 45.6198 17.455 45.6098 17.515C45.6098 17.575 45.6098 17.635 45.6098 17.695C45.6098 18.335 45.7798 18.87 46.1198 19.3C46.4598 19.72 46.9298 20.035 47.5298 20.245C48.1398 20.445 48.8348 20.545 49.6148 20.545ZM58.7271 22L60.5421 11.695H67.9521C68.5221 11.695 69.0121 11.775 69.4221 11.935C69.8321 12.095 70.1471 12.335 70.3671 12.655C70.5971 12.965 70.7121 13.355 70.7121 13.825C70.7121 14.285 70.6121 14.705 70.4121 15.085C70.2121 15.455 69.9471 15.775 69.6171 16.045C69.2871 16.305 68.9121 16.49 68.4921 16.6V16.66C68.9821 16.77 69.3771 17.005 69.6771 17.365C69.9771 17.715 70.1271 18.18 70.1271 18.76C70.1271 19.49 69.9571 20.1 69.6171 20.59C69.2871 21.07 68.8471 21.425 68.2971 21.655C67.7571 21.885 67.1771 22 66.5571 22H58.7271ZM60.9471 20.365H66.3321C66.6621 20.365 66.9671 20.305 67.2471 20.185C67.5271 20.065 67.7471 19.88 67.9071 19.63C68.0771 19.38 68.1621 19.055 68.1621 18.655C68.1621 18.305 68.0421 18.035 67.8021 17.845C67.5721 17.655 67.2321 17.56 66.7821 17.56H61.4421L60.9471 20.365ZM61.7121 15.955H66.7971C67.0571 15.955 67.2971 15.92 67.5171 15.85C67.7471 15.77 67.9421 15.655 68.1021 15.505C68.2721 15.355 68.4021 15.18 68.4921 14.98C68.5921 14.77 68.6421 14.545 68.6421 14.305C68.6421 13.975 68.5371 13.73 68.3271 13.57C68.1171 13.41 67.8221 13.33 67.4421 13.33H62.1921L61.7121 15.955ZM72.1779 22L73.9929 11.695H81.5529C82.2429 11.695 82.8079 11.81 83.2479 12.04C83.6979 12.26 84.0329 12.565 84.2529 12.955C84.4729 13.345 84.5829 13.785 84.5829 14.275C84.5829 14.785 84.4879 15.28 84.2979 15.76C84.1079 16.23 83.8229 16.645 83.4429 17.005C83.0729 17.365 82.6129 17.645 82.0629 17.845L83.5029 22H81.4479L80.1429 18.145H74.7879L74.1129 22H72.1779ZM75.0729 16.525H80.5179C80.9079 16.525 81.2579 16.44 81.5679 16.27C81.8779 16.1 82.1179 15.87 82.2879 15.58C82.4679 15.28 82.5579 14.94 82.5579 14.56C82.5579 14.18 82.4379 13.88 82.1979 13.66C81.9579 13.44 81.6079 13.33 81.1479 13.33H75.6429L75.0729 16.525ZM92.2798 22.18C91.0298 22.18 89.9598 22.015 89.0698 21.685C88.1898 21.355 87.5148 20.87 87.0448 20.23C86.5748 19.58 86.3398 18.79 86.3398 17.86C86.3398 17.39 86.3848 16.945 86.4748 16.525C86.5648 16.105 86.6998 15.715 86.8798 15.355C87.2198 14.515 87.7148 13.815 88.3648 13.255C89.0148 12.685 89.7948 12.255 90.7048 11.965C91.6248 11.665 92.6348 11.515 93.7348 11.515C94.9848 11.515 96.0498 11.685 96.9298 12.025C97.8198 12.355 98.4998 12.845 98.9698 13.495C99.4498 14.135 99.6898 14.92 99.6898 15.85C99.6898 16.26 99.6548 16.65 99.5848 17.02C99.5148 17.39 99.4098 17.74 99.2698 18.07C98.9598 18.96 98.4698 19.71 97.7998 20.32C97.1398 20.93 96.3398 21.395 95.3998 21.715C94.4698 22.025 93.4298 22.18 92.2798 22.18ZM92.3548 20.545C92.9948 20.545 93.6048 20.475 94.1848 20.335C94.7648 20.195 95.2898 19.98 95.7598 19.69C96.2398 19.4 96.6348 19.035 96.9448 18.595C97.2548 18.145 97.4598 17.615 97.5598 17.005C97.5798 16.865 97.5948 16.745 97.6048 16.645C97.6248 16.535 97.6398 16.445 97.6498 16.375C97.6598 16.295 97.6648 16.225 97.6648 16.165C97.6748 16.105 97.6798 16.05 97.6798 16C97.6798 15.34 97.5098 14.8 97.1698 14.38C96.8298 13.96 96.3548 13.65 95.7448 13.45C95.1448 13.25 94.4498 13.15 93.6598 13.15C93.0198 13.15 92.4098 13.22 91.8298 13.36C91.2498 13.5 90.7248 13.715 90.2548 14.005C89.7848 14.285 89.3948 14.65 89.0848 15.1C88.7848 15.54 88.5798 16.06 88.4698 16.66C88.4398 16.81 88.4148 16.94 88.3948 17.05C88.3848 17.15 88.3748 17.24 88.3648 17.32C88.3648 17.39 88.3598 17.455 88.3498 17.515C88.3498 17.575 88.3498 17.635 88.3498 17.695C88.3498 18.335 88.5198 18.87 88.8598 19.3C89.1998 19.72 89.6698 20.035 90.2698 20.245C90.8798 20.445 91.5748 20.545 92.3548 20.545ZM104.581 22L106.096 13.405H101.476L101.776 11.695H112.951L112.651 13.405H108.031L106.516 22H104.581ZM113.233 22L115.048 11.695H116.983L116.233 15.895H123.598L124.348 11.695H126.283L124.468 22H122.533L123.313 17.605H115.948L115.168 22H113.233ZM127.709 22L129.524 11.695H139.799L139.514 13.33H131.174L130.709 15.925H138.179L137.894 17.56H130.424L129.929 20.365H138.389L138.104 22H127.709ZM140.882 22L142.697 11.695H150.257C150.947 11.695 151.512 11.81 151.952 12.04C152.402 12.26 152.737 12.565 152.957 12.955C153.177 13.345 153.287 13.785 153.287 14.275C153.287 14.785 153.192 15.28 153.002 15.76C152.812 16.23 152.527 16.645 152.147 17.005C151.777 17.365 151.317 17.645 150.767 17.845L152.207 22H150.152L148.847 18.145H143.492L142.817 22H140.882ZM143.777 16.525H149.222C149.612 16.525 149.962 16.44 150.272 16.27C150.582 16.1 150.822 15.87 150.992 15.58C151.172 15.28 151.262 14.94 151.262 14.56C151.262 14.18 151.142 13.88 150.902 13.66C150.662 13.44 150.312 13.33 149.852 13.33H144.347L143.777 16.525ZM159.769 22.18C159.039 22.18 158.354 22.14 157.714 22.06C157.074 21.99 156.509 21.86 156.019 21.67C155.539 21.48 155.159 21.21 154.879 20.86C154.609 20.51 154.474 20.07 154.474 19.54C154.474 19.4 154.484 19.255 154.504 19.105C154.534 18.955 154.569 18.825 154.609 18.715H156.529C156.509 18.775 156.484 18.855 156.454 18.955C156.424 19.055 156.409 19.16 156.409 19.27C156.409 19.56 156.544 19.805 156.814 20.005C157.084 20.195 157.469 20.34 157.969 20.44C158.469 20.53 159.064 20.575 159.754 20.575C160.174 20.575 160.599 20.55 161.029 20.5C161.469 20.45 161.869 20.365 162.229 20.245C162.589 20.125 162.879 19.965 163.099 19.765C163.329 19.565 163.444 19.315 163.444 19.015C163.444 18.765 163.339 18.56 163.129 18.4C162.919 18.24 162.644 18.11 162.304 18.01C161.964 17.91 161.584 17.825 161.164 17.755C160.754 17.675 160.339 17.6 159.919 17.53C159.409 17.44 158.899 17.335 158.389 17.215C157.879 17.095 157.414 16.94 156.994 16.75C156.574 16.55 156.239 16.295 155.989 15.985C155.739 15.665 155.614 15.265 155.614 14.785C155.614 14.295 155.729 13.85 155.959 13.45C156.189 13.04 156.534 12.695 156.994 12.415C157.454 12.125 158.024 11.905 158.704 11.755C159.394 11.595 160.194 11.515 161.104 11.515C161.954 11.515 162.679 11.575 163.279 11.695C163.889 11.815 164.384 11.985 164.764 12.205C165.144 12.425 165.424 12.685 165.604 12.985C165.784 13.285 165.874 13.61 165.874 13.96C165.874 14.03 165.869 14.12 165.859 14.23C165.849 14.33 165.824 14.475 165.784 14.665H163.894C163.924 14.565 163.939 14.485 163.939 14.425C163.949 14.365 163.954 14.33 163.954 14.32C163.954 13.98 163.704 13.695 163.204 13.465C162.714 13.235 162.049 13.12 161.209 13.12C160.409 13.12 159.744 13.18 159.214 13.3C158.684 13.41 158.289 13.565 158.029 13.765C157.769 13.965 157.639 14.205 157.639 14.485C157.639 14.715 157.749 14.905 157.969 15.055C158.199 15.195 158.499 15.315 158.869 15.415C159.249 15.505 159.669 15.585 160.129 15.655C160.599 15.725 161.079 15.805 161.569 15.895C162.069 15.995 162.554 16.105 163.024 16.225C163.494 16.345 163.914 16.505 164.284 16.705C164.664 16.905 164.959 17.16 165.169 17.47C165.389 17.77 165.499 18.145 165.499 18.595C165.499 19.255 165.349 19.815 165.049 20.275C164.749 20.735 164.334 21.105 163.804 21.385C163.274 21.665 162.664 21.87 161.974 22C161.284 22.12 160.549 22.18 159.769 22.18ZM176.601 22.24C175.781 22.24 175.066 22.085 174.456 21.775C173.846 21.465 173.361 21.04 173.001 20.5C172.651 19.95 172.446 19.315 172.386 18.595L173.736 18.505C173.806 19.035 173.961 19.485 174.201 19.855C174.441 20.225 174.761 20.505 175.161 20.695C175.571 20.885 176.061 20.98 176.631 20.98C177.131 20.98 177.556 20.915 177.906 20.785C178.256 20.655 178.521 20.465 178.701 20.215C178.891 19.965 178.986 19.66 178.986 19.3C178.986 18.97 178.906 18.68 178.746 18.43C178.596 18.17 178.301 17.935 177.861 17.725C177.431 17.505 176.791 17.29 175.941 17.08C175.121 16.87 174.466 16.64 173.976 16.39C173.496 16.14 173.146 15.835 172.926 15.475C172.716 15.115 172.611 14.67 172.611 14.14C172.611 13.54 172.751 13.015 173.031 12.565C173.321 12.105 173.731 11.75 174.261 11.5C174.791 11.24 175.421 11.11 176.151 11.11C176.931 11.11 177.601 11.26 178.161 11.56C178.721 11.85 179.166 12.25 179.496 12.76C179.826 13.27 180.031 13.85 180.111 14.5L178.761 14.59C178.701 14.16 178.561 13.78 178.341 13.45C178.131 13.11 177.841 12.845 177.471 12.655C177.101 12.465 176.651 12.37 176.121 12.37C175.461 12.37 174.936 12.53 174.546 12.85C174.156 13.16 173.961 13.57 173.961 14.08C173.961 14.41 174.036 14.685 174.186 14.905C174.346 15.115 174.626 15.305 175.026 15.475C175.426 15.635 176.001 15.81 176.751 16C177.641 16.22 178.346 16.485 178.866 16.795C179.396 17.095 179.771 17.445 179.991 17.845C180.221 18.245 180.336 18.7 180.336 19.21C180.336 19.83 180.176 20.37 179.856 20.83C179.536 21.28 179.096 21.63 178.536 21.88C177.976 22.12 177.331 22.24 176.601 22.24ZM189.526 23.035L188.641 21.895C188.401 21.995 188.121 22.075 187.801 22.135C187.481 22.205 187.146 22.24 186.796 22.24C185.776 22.24 184.906 21.995 184.186 21.505C183.476 21.005 182.931 20.335 182.551 19.495C182.171 18.655 181.981 17.72 181.981 16.69C181.981 15.65 182.166 14.71 182.536 13.87C182.916 13.03 183.466 12.36 184.186 11.86C184.906 11.36 185.776 11.11 186.796 11.11C187.836 11.11 188.716 11.36 189.436 11.86C190.156 12.36 190.701 13.03 191.071 13.87C191.441 14.71 191.626 15.65 191.626 16.69C191.626 17.67 191.451 18.57 191.101 19.39C190.751 20.21 190.246 20.87 189.586 21.37L190.906 23.035H189.526ZM186.796 20.98C187.016 20.98 187.211 20.97 187.381 20.95C187.551 20.92 187.701 20.875 187.831 20.815L186.286 18.88H187.666L188.806 20.38C189.296 19.99 189.661 19.485 189.901 18.865C190.151 18.235 190.276 17.51 190.276 16.69C190.276 15.9 190.146 15.18 189.886 14.53C189.636 13.88 189.251 13.36 188.731 12.97C188.221 12.57 187.576 12.37 186.796 12.37C186.016 12.37 185.371 12.57 184.861 12.97C184.351 13.36 183.966 13.88 183.706 14.53C183.456 15.18 183.331 15.9 183.331 16.69C183.331 17.47 183.456 18.185 183.706 18.835C183.966 19.485 184.351 20.005 184.861 20.395C185.381 20.785 186.026 20.98 186.796 20.98ZM193.117 18.22V17.035H198.082V18.22H193.117ZM203.406 22.24C202.226 22.24 201.316 21.965 200.676 21.415C200.036 20.855 199.691 20.135 199.641 19.255L200.976 19.165C201.036 19.815 201.286 20.28 201.726 20.56C202.176 20.84 202.736 20.98 203.406 20.98C203.866 20.98 204.291 20.92 204.681 20.8C205.071 20.67 205.386 20.465 205.626 20.185C205.866 19.895 205.986 19.51 205.986 19.03C205.986 18.32 205.751 17.8 205.281 17.47C204.811 17.14 204.191 16.975 203.421 16.975H202.581V15.715H203.421C204.051 15.715 204.571 15.59 204.981 15.34C205.401 15.09 205.611 14.66 205.611 14.05C205.611 13.5 205.431 13.085 205.071 12.805C204.721 12.515 204.191 12.37 203.481 12.37C202.781 12.37 202.251 12.505 201.891 12.775C201.541 13.045 201.331 13.415 201.261 13.885L199.911 13.795C200.011 12.995 200.366 12.35 200.976 11.86C201.586 11.36 202.421 11.11 203.481 11.11C204.201 11.11 204.821 11.23 205.341 11.47C205.861 11.7 206.261 12.03 206.541 12.46C206.821 12.89 206.961 13.4 206.961 13.99C206.961 14.65 206.751 15.185 206.331 15.595C205.921 15.995 205.311 16.27 204.501 16.42V16.15C205.371 16.25 206.061 16.56 206.571 17.08C207.081 17.6 207.336 18.25 207.336 19.03C207.336 19.71 207.166 20.29 206.826 20.77C206.496 21.25 206.036 21.615 205.446 21.865C204.856 22.115 204.176 22.24 203.406 22.24ZM209.14 22C209.14 21.25 209.255 20.575 209.485 19.975C209.725 19.365 210.14 18.785 210.73 18.235C211.33 17.685 212.16 17.13 213.22 16.57C213.71 16.31 214.105 16.07 214.405 15.85C214.705 15.63 214.925 15.395 215.065 15.145C215.205 14.895 215.275 14.59 215.275 14.23C215.275 13.86 215.195 13.54 215.035 13.27C214.875 12.99 214.635 12.77 214.315 12.61C214.005 12.45 213.615 12.37 213.145 12.37C212.395 12.37 211.8 12.565 211.36 12.955C210.93 13.345 210.66 13.9 210.55 14.62L209.2 14.53C209.32 13.49 209.72 12.66 210.4 12.04C211.08 11.42 211.995 11.11 213.145 11.11C213.875 11.11 214.5 11.24 215.02 11.5C215.54 11.76 215.935 12.125 216.205 12.595C216.485 13.055 216.625 13.59 216.625 14.2C216.625 14.74 216.535 15.21 216.355 15.61C216.175 16 215.87 16.365 215.44 16.705C215.02 17.045 214.44 17.41 213.7 17.8C212.74 18.31 212.01 18.825 211.51 19.345C211.02 19.865 210.76 20.33 210.73 20.74H216.625V22H209.14Z" fill="white"/>
</g>
</g>
<defs>
<filter id="filter0_i_214_29976" x="0" y="0" width="233" height="34" filterUnits="userSpaceOnUse" color-interpolation-filters="sRGB">
<feFlood flood-opacity="0" result="BackgroundImageFix"/>
<feBlend mode="normal" in="SourceGraphic" in2="BackgroundImageFix" result="shape"/>
<feColorMatrix in="SourceAlpha" type="matrix" values="0 0 0 0 0 0 0 0 0 0 0 0 0 0 0 0 0 0 127 0" result="hardAlpha"/>
<feOffset dx="1" dy="1"/>
<feGaussianBlur stdDeviation="2.25"/>
<feComposite in2="hardAlpha" operator="arithmetic" k2="-1" k3="1"/>
<feColorMatrix type="matrix" values="0 0 0 0 0.999249 0 0 0 0 0.999249 0 0 0 0 0.999249 0 0 0 0.33 0"/>
<feBlend mode="normal" in2="shape" result="effect1_innerShadow_214_29976"/>
</filter>
<filter id="filter1_d_214_29976" x="15.3279" y="11.11" width="201.297" height="12.925" filterUnits="userSpaceOnUse" color-interpolation-filters="sRGB">
<feFlood flood-opacity="0" result="BackgroundImageFix"/>
<feColorMatrix in="SourceAlpha" type="matrix" values="0 0 0 0 0 0 0 0 0 0 0 0 0 0 0 0 0 0 127 0" result="hardAlpha"/>
<feOffset dy="1"/>
<feComposite in2="hardAlpha" operator="out"/>
<feColorMatrix type="matrix" values="0 0 0 0 0 0 0 0 0 0 0 0 0 0 0 0 0 0 1 0"/>
<feBlend mode="normal" in2="BackgroundImageFix" result="effect1_dropShadow_214_29976"/>
<feBlend mode="normal" in="SourceGraphic" in2="effect1_dropShadow_214_29976" result="shape"/>
</filter>
</defs>
</svg>
