<svg width="232" height="30" viewBox="0 0 232 30" fill="none" xmlns="http://www.w3.org/2000/svg">
<path d="M5.81203 20L7.62703 9.695H9.56203L8.57203 15.305L16.102 9.695H18.772L13.162 13.925L17.092 20H14.797L11.647 15.005L8.18203 17.435L7.74703 20H5.81203ZM19.2628 20L21.0778 9.695H22.9378L27.9328 15.875C28.0128 15.965 28.1128 16.095 28.2328 16.265C28.3628 16.435 28.4978 16.615 28.6378 16.805C28.7878 16.995 28.9228 17.165 29.0428 17.315H29.1628C29.1828 17.105 29.2128 16.85 29.2528 16.55C29.2928 16.24 29.3328 15.98 29.3728 15.77L30.4528 9.695H32.3128L30.4978 20H28.6978L23.6878 13.76C23.4878 13.52 23.2778 13.255 23.0578 12.965C22.8478 12.675 22.6778 12.445 22.5478 12.275H22.4428C22.4328 12.435 22.4028 12.68 22.3528 13.01C22.3128 13.33 22.2578 13.67 22.1878 14.03L21.1228 20H19.2628ZM40.024 20.18C38.774 20.18 37.704 20.015 36.814 19.685C35.934 19.355 35.259 18.87 34.789 18.23C34.319 17.58 34.084 16.79 34.084 15.86C34.084 15.39 34.129 14.945 34.219 14.525C34.309 14.105 34.444 13.715 34.624 13.355C34.964 12.515 35.459 11.815 36.109 11.255C36.759 10.685 37.539 10.255 38.449 9.965C39.369 9.665 40.379 9.515 41.479 9.515C42.729 9.515 43.794 9.685 44.674 10.025C45.564 10.355 46.244 10.845 46.714 11.495C47.194 12.135 47.434 12.92 47.434 13.85C47.434 14.26 47.399 14.65 47.329 15.02C47.259 15.39 47.154 15.74 47.014 16.07C46.704 16.96 46.214 17.71 45.544 18.32C44.884 18.93 44.084 19.395 43.144 19.715C42.214 20.025 41.174 20.18 40.024 20.18ZM40.099 18.545C40.739 18.545 41.349 18.475 41.929 18.335C42.509 18.195 43.034 17.98 43.504 17.69C43.984 17.4 44.379 17.035 44.689 16.595C44.999 16.145 45.204 15.615 45.304 15.005C45.324 14.865 45.339 14.745 45.349 14.645C45.369 14.535 45.384 14.445 45.394 14.375C45.404 14.295 45.409 14.225 45.409 14.165C45.419 14.105 45.424 14.05 45.424 14C45.424 13.34 45.254 12.8 44.914 12.38C44.574 11.96 44.099 11.65 43.489 11.45C42.889 11.25 42.194 11.15 41.404 11.15C40.764 11.15 40.154 11.22 39.574 11.36C38.994 11.5 38.469 11.715 37.999 12.005C37.529 12.285 37.139 12.65 36.829 13.1C36.529 13.54 36.324 14.06 36.214 14.66C36.184 14.81 36.159 14.94 36.139 15.05C36.129 15.15 36.119 15.24 36.109 15.32C36.109 15.39 36.104 15.455 36.094 15.515C36.094 15.575 36.094 15.635 36.094 15.695C36.094 16.335 36.264 16.87 36.604 17.3C36.944 17.72 37.414 18.035 38.014 18.245C38.624 18.445 39.319 18.545 40.099 18.545ZM49.2113 20L51.0263 9.695H58.4363C59.0063 9.695 59.4963 9.775 59.9063 9.935C60.3163 10.095 60.6313 10.335 60.8513 10.655C61.0813 10.965 61.1963 11.355 61.1963 11.825C61.1963 12.285 61.0963 12.705 60.8963 13.085C60.6963 13.455 60.4313 13.775 60.1013 14.045C59.7713 14.305 59.3963 14.49 58.9763 14.6V14.66C59.4663 14.77 59.8613 15.005 60.1613 15.365C60.4613 15.715 60.6113 16.18 60.6113 16.76C60.6113 17.49 60.4413 18.1 60.1013 18.59C59.7713 19.07 59.3313 19.425 58.7813 19.655C58.2413 19.885 57.6613 20 57.0413 20H49.2113ZM51.4313 18.365H56.8163C57.1463 18.365 57.4513 18.305 57.7313 18.185C58.0113 18.065 58.2313 17.88 58.3913 17.63C58.5613 17.38 58.6463 17.055 58.6463 16.655C58.6463 16.305 58.5263 16.035 58.2863 15.845C58.0563 15.655 57.7163 15.56 57.2663 15.56H51.9263L51.4313 18.365ZM52.1963 13.955H57.2813C57.5413 13.955 57.7813 13.92 58.0013 13.85C58.2313 13.77 58.4263 13.655 58.5863 13.505C58.7563 13.355 58.8863 13.18 58.9763 12.98C59.0763 12.77 59.1263 12.545 59.1263 12.305C59.1263 11.975 59.0213 11.73 58.8113 11.57C58.6013 11.41 58.3063 11.33 57.9263 11.33H52.6763L52.1963 13.955ZM62.662 20L64.477 9.695H72.037C72.727 9.695 73.292 9.81 73.732 10.04C74.182 10.26 74.517 10.565 74.737 10.955C74.957 11.345 75.067 11.785 75.067 12.275C75.067 12.785 74.972 13.28 74.782 13.76C74.592 14.23 74.307 14.645 73.927 15.005C73.557 15.365 73.097 15.645 72.547 15.845L73.987 20H71.932L70.627 16.145H65.272L64.597 20H62.662ZM65.557 14.525H71.002C71.392 14.525 71.742 14.44 72.052 14.27C72.362 14.1 72.602 13.87 72.772 13.58C72.952 13.28 73.042 12.94 73.042 12.56C73.042 12.18 72.922 11.88 72.682 11.66C72.442 11.44 72.092 11.33 71.632 11.33H66.127L65.557 14.525ZM82.764 20.18C81.514 20.18 80.444 20.015 79.554 19.685C78.674 19.355 77.999 18.87 77.529 18.23C77.059 17.58 76.824 16.79 76.824 15.86C76.824 15.39 76.869 14.945 76.959 14.525C77.049 14.105 77.184 13.715 77.364 13.355C77.704 12.515 78.199 11.815 78.849 11.255C79.499 10.685 80.279 10.255 81.189 9.965C82.109 9.665 83.119 9.515 84.219 9.515C85.469 9.515 86.534 9.685 87.414 10.025C88.304 10.355 88.984 10.845 89.454 11.495C89.934 12.135 90.174 12.92 90.174 13.85C90.174 14.26 90.139 14.65 90.069 15.02C89.999 15.39 89.894 15.74 89.754 16.07C89.444 16.96 88.954 17.71 88.284 18.32C87.624 18.93 86.824 19.395 85.884 19.715C84.954 20.025 83.914 20.18 82.764 20.18ZM82.839 18.545C83.479 18.545 84.089 18.475 84.669 18.335C85.249 18.195 85.774 17.98 86.244 17.69C86.724 17.4 87.119 17.035 87.429 16.595C87.739 16.145 87.944 15.615 88.044 15.005C88.064 14.865 88.079 14.745 88.089 14.645C88.109 14.535 88.124 14.445 88.134 14.375C88.144 14.295 88.149 14.225 88.149 14.165C88.159 14.105 88.164 14.05 88.164 14C88.164 13.34 87.994 12.8 87.654 12.38C87.314 11.96 86.839 11.65 86.229 11.45C85.629 11.25 84.934 11.15 84.144 11.15C83.504 11.15 82.894 11.22 82.314 11.36C81.734 11.5 81.209 11.715 80.739 12.005C80.269 12.285 79.879 12.65 79.569 13.1C79.269 13.54 79.064 14.06 78.954 14.66C78.924 14.81 78.899 14.94 78.879 15.05C78.869 15.15 78.859 15.24 78.849 15.32C78.849 15.39 78.844 15.455 78.834 15.515C78.834 15.575 78.834 15.635 78.834 15.695C78.834 16.335 79.004 16.87 79.344 17.3C79.684 17.72 80.154 18.035 80.754 18.245C81.364 18.445 82.059 18.545 82.839 18.545ZM95.0651 20L96.5801 11.405H91.9601L92.2601 9.695H103.435L103.135 11.405H98.5151L97.0001 20H95.0651ZM103.718 20L105.533 9.695H107.468L106.718 13.895H114.083L114.833 9.695H116.768L114.953 20H113.018L113.798 15.605H106.433L105.653 20H103.718ZM118.194 20L120.009 9.695H130.284L129.999 11.33H121.659L121.194 13.925H128.664L128.379 15.56H120.909L120.414 18.365H128.874L128.589 20H118.194ZM131.366 20L133.181 9.695H140.741C141.431 9.695 141.996 9.81 142.436 10.04C142.886 10.26 143.221 10.565 143.441 10.955C143.661 11.345 143.771 11.785 143.771 12.275C143.771 12.785 143.676 13.28 143.486 13.76C143.296 14.23 143.011 14.645 142.631 15.005C142.261 15.365 141.801 15.645 141.251 15.845L142.691 20H140.636L139.331 16.145H133.976L133.301 20H131.366ZM134.261 14.525H139.706C140.096 14.525 140.446 14.44 140.756 14.27C141.066 14.1 141.306 13.87 141.476 13.58C141.656 13.28 141.746 12.94 141.746 12.56C141.746 12.18 141.626 11.88 141.386 11.66C141.146 11.44 140.796 11.33 140.336 11.33H134.831L134.261 14.525ZM150.253 20.18C149.523 20.18 148.838 20.14 148.198 20.06C147.558 19.99 146.993 19.86 146.503 19.67C146.023 19.48 145.643 19.21 145.363 18.86C145.093 18.51 144.958 18.07 144.958 17.54C144.958 17.4 144.968 17.255 144.988 17.105C145.018 16.955 145.053 16.825 145.093 16.715H147.013C146.993 16.775 146.968 16.855 146.938 16.955C146.908 17.055 146.893 17.16 146.893 17.27C146.893 17.56 147.028 17.805 147.298 18.005C147.568 18.195 147.953 18.34 148.453 18.44C148.953 18.53 149.548 18.575 150.238 18.575C150.658 18.575 151.083 18.55 151.513 18.5C151.953 18.45 152.353 18.365 152.713 18.245C153.073 18.125 153.363 17.965 153.583 17.765C153.813 17.565 153.928 17.315 153.928 17.015C153.928 16.765 153.823 16.56 153.613 16.4C153.403 16.24 153.128 16.11 152.788 16.01C152.448 15.91 152.068 15.825 151.648 15.755C151.238 15.675 150.823 15.6 150.403 15.53C149.893 15.44 149.383 15.335 148.873 15.215C148.363 15.095 147.898 14.94 147.478 14.75C147.058 14.55 146.723 14.295 146.473 13.985C146.223 13.665 146.098 13.265 146.098 12.785C146.098 12.295 146.213 11.85 146.443 11.45C146.673 11.04 147.018 10.695 147.478 10.415C147.938 10.125 148.508 9.905 149.188 9.755C149.878 9.595 150.678 9.515 151.588 9.515C152.438 9.515 153.163 9.575 153.763 9.695C154.373 9.815 154.868 9.985 155.248 10.205C155.628 10.425 155.908 10.685 156.088 10.985C156.268 11.285 156.358 11.61 156.358 11.96C156.358 12.03 156.353 12.12 156.343 12.23C156.333 12.33 156.308 12.475 156.268 12.665H154.378C154.408 12.565 154.423 12.485 154.423 12.425C154.433 12.365 154.438 12.33 154.438 12.32C154.438 11.98 154.188 11.695 153.688 11.465C153.198 11.235 152.533 11.12 151.693 11.12C150.893 11.12 150.228 11.18 149.698 11.3C149.168 11.41 148.773 11.565 148.513 11.765C148.253 11.965 148.123 12.205 148.123 12.485C148.123 12.715 148.233 12.905 148.453 13.055C148.683 13.195 148.983 13.315 149.353 13.415C149.733 13.505 150.153 13.585 150.613 13.655C151.083 13.725 151.563 13.805 152.053 13.895C152.553 13.995 153.038 14.105 153.508 14.225C153.978 14.345 154.398 14.505 154.768 14.705C155.148 14.905 155.443 15.16 155.653 15.47C155.873 15.77 155.983 16.145 155.983 16.595C155.983 17.255 155.833 17.815 155.533 18.275C155.233 18.735 154.818 19.105 154.288 19.385C153.758 19.665 153.148 19.87 152.458 20C151.768 20.12 151.033 20.18 150.253 20.18Z" fill="url(#paint0_linear_325_6078)"/>
<path d="M174.188 20.18C173.368 20.18 172.608 20.135 171.908 20.045C171.208 19.965 170.593 19.825 170.063 19.625C169.543 19.415 169.133 19.13 168.833 18.77C168.543 18.41 168.398 17.95 168.398 17.39C168.398 17.27 168.408 17.135 168.428 16.985C168.448 16.825 168.478 16.69 168.518 16.58H171.503C171.473 16.64 171.448 16.71 171.428 16.79C171.418 16.87 171.413 16.945 171.413 17.015C171.413 17.275 171.518 17.48 171.728 17.63C171.948 17.78 172.253 17.885 172.643 17.945C173.043 18.005 173.508 18.035 174.038 18.035C174.328 18.035 174.638 18.025 174.968 18.005C175.298 17.975 175.603 17.925 175.883 17.855C176.173 17.785 176.408 17.685 176.588 17.555C176.768 17.425 176.858 17.255 176.858 17.045C176.858 16.855 176.748 16.705 176.528 16.595C176.318 16.475 176.033 16.38 175.673 16.31C175.313 16.23 174.913 16.16 174.473 16.1C174.043 16.04 173.603 15.97 173.153 15.89C172.693 15.81 172.238 15.705 171.788 15.575C171.338 15.435 170.928 15.265 170.558 15.065C170.188 14.855 169.898 14.595 169.688 14.285C169.478 13.965 169.373 13.57 169.373 13.1C169.373 12.48 169.518 11.945 169.808 11.495C170.108 11.035 170.523 10.66 171.053 10.37C171.593 10.08 172.218 9.865 172.928 9.725C173.648 9.575 174.418 9.5 175.238 9.5C176.038 9.5 176.758 9.555 177.398 9.665C178.038 9.775 178.583 9.935 179.033 10.145C179.493 10.355 179.843 10.625 180.083 10.955C180.333 11.285 180.458 11.67 180.458 12.11C180.458 12.18 180.453 12.27 180.443 12.38C180.433 12.48 180.413 12.62 180.383 12.8H177.428C177.438 12.74 177.443 12.69 177.443 12.65C177.443 12.6 177.443 12.57 177.443 12.56C177.443 12.27 177.258 12.035 176.888 11.855C176.528 11.675 176.008 11.585 175.328 11.585C174.698 11.585 174.178 11.63 173.768 11.72C173.368 11.8 173.073 11.91 172.883 12.05C172.693 12.18 172.598 12.33 172.598 12.5C172.598 12.68 172.698 12.825 172.898 12.935C173.098 13.035 173.368 13.12 173.708 13.19C174.048 13.26 174.433 13.325 174.863 13.385C175.293 13.435 175.738 13.495 176.198 13.565C176.678 13.645 177.148 13.745 177.608 13.865C178.078 13.985 178.498 14.15 178.868 14.36C179.248 14.56 179.548 14.82 179.768 15.14C179.998 15.45 180.113 15.84 180.113 16.31C180.113 17.01 179.953 17.605 179.633 18.095C179.323 18.585 178.893 18.985 178.343 19.295C177.803 19.605 177.173 19.83 176.453 19.97C175.743 20.11 174.988 20.18 174.188 20.18ZM190.106 21.965L188.456 20.18C188.416 20.18 188.371 20.18 188.321 20.18C188.281 20.18 188.241 20.18 188.201 20.18C186.901 20.18 185.786 20.01 184.856 19.67C183.936 19.32 183.231 18.82 182.741 18.17C182.251 17.52 182.006 16.73 182.006 15.8C182.006 15.11 182.101 14.47 182.291 13.88C182.481 13.29 182.751 12.76 183.101 12.29C183.521 11.69 184.051 11.185 184.691 10.775C185.331 10.365 186.061 10.05 186.881 9.83C187.701 9.61 188.586 9.5 189.536 9.5C190.836 9.5 191.946 9.675 192.866 10.025C193.796 10.375 194.506 10.88 194.996 11.54C195.496 12.19 195.746 12.98 195.746 13.91C195.746 14.57 195.651 15.185 195.461 15.755C195.281 16.315 195.021 16.82 194.681 17.27C194.351 17.82 193.926 18.29 193.406 18.68C192.886 19.07 192.296 19.38 191.636 19.61L193.991 21.965H190.106ZM188.321 17.915C188.861 17.915 189.361 17.85 189.821 17.72C190.291 17.59 190.711 17.4 191.081 17.15C191.461 16.9 191.771 16.595 192.011 16.235C192.251 15.865 192.406 15.455 192.476 15.005C192.496 14.875 192.511 14.765 192.521 14.675C192.541 14.575 192.551 14.495 192.551 14.435C192.561 14.365 192.566 14.305 192.566 14.255C192.576 14.205 192.581 14.16 192.581 14.12C192.581 13.62 192.451 13.195 192.191 12.845C191.931 12.495 191.561 12.23 191.081 12.05C190.611 11.86 190.056 11.765 189.416 11.765C188.876 11.765 188.371 11.83 187.901 11.96C187.431 12.09 187.016 12.28 186.656 12.53C186.296 12.78 185.996 13.085 185.756 13.445C185.516 13.795 185.356 14.195 185.276 14.645C185.256 14.785 185.236 14.905 185.216 15.005C185.206 15.095 185.196 15.175 185.186 15.245C185.186 15.305 185.181 15.36 185.171 15.41C185.171 15.46 185.171 15.505 185.171 15.545C185.171 16.035 185.301 16.46 185.561 16.82C185.821 17.17 186.186 17.44 186.656 17.63C187.126 17.82 187.681 17.915 188.321 17.915ZM196.957 17.03L197.377 14.735H202.102L201.697 17.03H196.957ZM208.898 20.18C207.728 20.18 206.768 20.07 206.018 19.85C205.268 19.62 204.708 19.31 204.338 18.92C203.978 18.52 203.798 18.075 203.798 17.585C203.798 17.515 203.803 17.425 203.813 17.315C203.833 17.195 203.863 17.05 203.903 16.88H206.618C206.588 17 206.568 17.095 206.558 17.165C206.558 17.225 206.558 17.265 206.558 17.285C206.558 17.605 206.738 17.855 207.098 18.035C207.458 18.215 207.988 18.305 208.688 18.305C209.298 18.305 209.808 18.24 210.218 18.11C210.638 17.97 210.953 17.775 211.163 17.525C211.383 17.265 211.493 16.965 211.493 16.625C211.493 16.385 211.413 16.195 211.253 16.055C211.103 15.915 210.903 15.815 210.653 15.755C210.403 15.685 210.118 15.65 209.798 15.65H208.208L208.523 13.865H209.903C210.143 13.865 210.378 13.84 210.608 13.79C210.848 13.74 211.068 13.66 211.268 13.55C211.468 13.44 211.628 13.3 211.748 13.13C211.868 12.95 211.928 12.735 211.928 12.485C211.928 12.265 211.848 12.075 211.688 11.915C211.538 11.745 211.318 11.615 211.028 11.525C210.748 11.425 210.403 11.375 209.993 11.375C209.623 11.375 209.268 11.425 208.928 11.525C208.588 11.625 208.303 11.765 208.073 11.945C207.843 12.115 207.713 12.31 207.683 12.53L207.653 12.725H205.028L205.088 12.35C205.178 11.82 205.443 11.34 205.883 10.91C206.333 10.48 206.928 10.14 207.668 9.89C208.408 9.63 209.273 9.5 210.263 9.5C211.253 9.5 212.088 9.61 212.768 9.83C213.448 10.04 213.963 10.335 214.313 10.715C214.673 11.085 214.853 11.52 214.853 12.02C214.853 12.46 214.743 12.855 214.523 13.205C214.303 13.555 214.013 13.845 213.653 14.075C213.293 14.305 212.898 14.48 212.468 14.6V14.66C213.068 14.78 213.533 15.015 213.863 15.365C214.193 15.705 214.358 16.165 214.358 16.745C214.358 17.385 214.158 17.965 213.758 18.485C213.358 18.995 212.753 19.405 211.943 19.715C211.133 20.025 210.118 20.18 208.898 20.18ZM215.423 20L215.543 19.34C215.623 18.8 215.833 18.315 216.173 17.885C216.523 17.455 216.948 17.06 217.448 16.7C217.958 16.34 218.498 16.01 219.068 15.71C219.648 15.41 220.223 15.13 220.793 14.87C221.363 14.6 221.878 14.335 222.338 14.075C222.798 13.815 223.168 13.555 223.448 13.295C223.728 13.025 223.868 12.735 223.868 12.425C223.868 12.125 223.718 11.885 223.418 11.705C223.128 11.515 222.653 11.42 221.993 11.42C221.493 11.42 221.063 11.49 220.703 11.63C220.353 11.77 220.073 11.955 219.863 12.185C219.663 12.415 219.538 12.67 219.488 12.95L219.413 13.31H216.668C216.708 12.7 216.873 12.16 217.163 11.69C217.463 11.22 217.863 10.82 218.363 10.49C218.873 10.16 219.463 9.915 220.133 9.755C220.803 9.585 221.533 9.5 222.323 9.5C223.243 9.5 224.038 9.6 224.708 9.8C225.388 9.99 225.913 10.28 226.283 10.67C226.663 11.06 226.853 11.545 226.853 12.125C226.853 12.575 226.758 12.99 226.568 13.37C226.388 13.74 226.138 14.08 225.818 14.39C225.498 14.7 225.133 14.99 224.723 15.26C224.323 15.52 223.903 15.76 223.463 15.98C223.023 16.2 222.583 16.405 222.143 16.595C221.713 16.775 221.313 16.955 220.943 17.135C220.733 17.235 220.538 17.33 220.358 17.42C220.178 17.51 220.018 17.6 219.878 17.69H226.013L225.608 20H215.423Z" fill="url(#paint1_linear_325_6078)"/>
<defs>
<linearGradient id="paint0_linear_325_6078" x1="81" y1="10" x2="81" y2="20" gradientUnits="userSpaceOnUse">
<stop stop-color="white"/>
<stop offset="0.581731" stop-color="white"/>
<stop offset="0.980769" stop-color="#BDBDBD"/>
</linearGradient>
<linearGradient id="paint1_linear_325_6078" x1="197.5" y1="10" x2="197.5" y2="20" gradientUnits="userSpaceOnUse">
<stop stop-color="white"/>
<stop offset="0.581731" stop-color="white"/>
<stop offset="0.980769" stop-color="#BDBDBD"/>
</linearGradient>
</defs>
</svg>
